# xmcd
#
# Track frame offsets:
#	150
#	10943
#	25350
#	39505
#	55190
#	71413
#	83828
#	100045
#	117818
#	133998
#
# Disc length: 1990 seconds
#
# Revision: 0
# Processed by: cddbd v1.5.1PL0 Copyright (c) Steve Scherf et al.
# Submitted via: dBpowerAMP V4.0
#
DISCID=7d07c40a
DTITLE=Various Artist - The Roots of Soul Vol. 1
DYEAR=1900
DGENRE=Soul
TTITLE0=Booker T. and the MGs -- Soul Limbo
TTITLE1=The Emotions -- Show Me How
TTITLE2=Eddie Floyd -- Knock on Wood
TTITLE3=Johnnie Taylor -- Cheaper to Keep Her
TTITLE4=Soul Children -- I'll Be the Other Woman
TTITLE5=Jean Knight -- Mr. Big Stuff
TTITLE6=The Dramatics -- And I Panicked
TTITLE7=Albert King -- I'll play the Blues for You
TTITLE8=Isaac Hayes -- Never Can Say goodbye
TTITLE9=The Bar-Kays -- Son of Shaft
EXTD=
EXTT0=
EXTT1=
EXTT2=
EXTT3=
EXTT4=
EXTT5=
EXTT6=
EXTT7=
EXTT8=
EXTT9=
PLAYORDER=
